<svg height="512" viewBox="0 0 16 16" width="512" xmlns="http://www.w3.org/2000/svg"><path d="m.5 2c.276367 0 .5-.223633.5-.5v-1c0-.276367-.223633-.5-.5-.5s-.5.223633-.5.5v1c0 .276367.223633.5.5.5z" transform="translate(7.5)"/><path d="m1.5 0h-1c-.276367 0-.5.223633-.5.5s.223633.5.5.5h1c.276367 0 .5-.223633.5-.5s-.223633-.5-.5-.5z" transform="translate(14 7.5)"/><path d="m2 .5c0-.276367-.223633-.5-.5-.5h-1c-.276367 0-.5.223633-.5.5s.223633.5.5.5h1c.276367 0 .5-.223633.5-.5z" transform="translate(0 7.5)"/><path d="m.548828 1.75586c.12793 0 .255859-.0488281.353516-.146484l.707031-.707031c.195312-.195312.195312-.511719 0-.707031-.195312-.195312-.511719-.195312-.707031 0l-.707031.707031c-.195312.195312-.195312.511719 0 .707031.0976562.0976563.225586.146484.353516.146484z" transform="translate(12.047 2.148)"/><path d="m.902344 1.60938c.0976562.0976562.225586.146484.353516.146484s.255859-.0488281.353516-.146484c.195312-.195312.195312-.511719 0-.707031l-.707031-.707031c-.195312-.195312-.511719-.195312-.707031 0-.195312.195312-.195312.511719 0 .707031l.707031.707031z" transform="translate(2.148 2.148)"/><path d="m12.5 8h-1v-3c0-2.75684-2.24316-5-5-5s-5 2.24316-5 5v3h-1c-.276367 0-.5.223633-.5.5s.223633.5.5.5h3v2.5c0 .276367.223633.5.5.5s.5-.223633.5-.5v-2.5h4v3.5c0 .276367.223633.5.5.5s.5-.223633.5-.5v-3.5h3c.276367 0 .5-.223633.5-.5s-.223633-.5-.5-.5zm-10 0v-3c0-1.75214 1.13373-3.22498 2.70197-3.76605-1.02686.72406-1.70197 1.91406-1.70197 3.26605v3.5z" transform="translate(1.5 3)"/></svg>