<svg xmlns="http://www.w3.org/2000/svg" style="display: none;"><symbol id="cube" viewBox="-34 0 512 512"><title>cube</title><path d="m221.703125 0-221.703125 128v256l221.703125 128 221.703125-128v-256zm176.515625 136.652344-176.515625 101.914062-176.515625-101.914062 176.515625-101.910156zm-368.132812 26.027344 176.574218 101.941406v203.953125l-176.574218-101.945313zm206.660156 305.894531v-203.953125l176.574218-101.941406v203.949218zm0 0"/></symbol><symbol id="clock" viewBox="0 0 60 60"><title>clock</title><path d="M30,0C13.458,0,0,13.458,0,30s13.458,30,30,30s30-13.458,30-30S46.542,0,30,0z M30,58C14.561,58,2,45.439,2,30 S14.561,2,30,2s28,12.561,28,28S45.439,58,30,58z"/><path d="M31,26.021V15.879c0-0.553-0.448-1-1-1s-1,0.447-1,1v10.142c-1.399,0.364-2.494,1.459-2.858,2.858H19c-0.552,0-1,0.447-1,1 s0.448,1,1,1h7.142c0.447,1.72,2,3,3.858,3c2.206,0,4-1.794,4-4C34,28.02,32.72,26.468,31,26.021z M30,31.879c-1.103,0-2-0.897-2-2 s0.897-2,2-2s2,0.897,2,2S31.103,31.879,30,31.879z"/><path d="M30,9.879c0.552,0,1-0.447,1-1v-1c0-0.553-0.448-1-1-1s-1,0.447-1,1v1C29,9.432,29.448,9.879,30,9.879z"/><path d="M30,49.879c-0.552,0-1,0.447-1,1v1c0,0.553,0.448,1,1,1s1-0.447,1-1v-1C31,50.326,30.552,49.879,30,49.879z"/><path d="M52,28.879h-1c-0.552,0-1,0.447-1,1s0.448,1,1,1h1c0.552,0,1-0.447,1-1S52.552,28.879,52,28.879z"/><path d="M9,28.879H8c-0.552,0-1,0.447-1,1s0.448,1,1,1h1c0.552,0,1-0.447,1-1S9.552,28.879,9,28.879z"/><path d="M44.849,13.615l-0.707,0.707c-0.391,0.391-0.391,1.023,0,1.414c0.195,0.195,0.451,0.293,0.707,0.293 s0.512-0.098,0.707-0.293l0.707-0.707c0.391-0.391,0.391-1.023,0-1.414S45.24,13.225,44.849,13.615z"/><path d="M14.444,44.021l-0.707,0.707c-0.391,0.391-0.391,1.023,0,1.414c0.195,0.195,0.451,0.293,0.707,0.293 s0.512-0.098,0.707-0.293l0.707-0.707c0.391-0.391,0.391-1.023,0-1.414S14.834,43.631,14.444,44.021z"/><path d="M45.556,44.021c-0.391-0.391-1.023-0.391-1.414,0s-0.391,1.023,0,1.414l0.707,0.707c0.195,0.195,0.451,0.293,0.707,0.293 s0.512-0.098,0.707-0.293c0.391-0.391,0.391-1.023,0-1.414L45.556,44.021z"/><path d="M15.151,13.615c-0.391-0.391-1.023-0.391-1.414,0s-0.391,1.023,0,1.414l0.707,0.707c0.195,0.195,0.451,0.293,0.707,0.293 s0.512-0.098,0.707-0.293c0.391-0.391,0.391-1.023,0-1.414L15.151,13.615z"/></symbol><symbol id="printer" viewBox="0 0 16 16"><title>printer</title><path style="fill:#030104;" d="M4,12.5v3h8v-3v-2H4V12.5z M5,11.5h6v1H5V11.5z M5,13.5h6v1H5V13.5z"/><polygon style="fill:#030104;" points="12,3.5 12,0.5 4,0.5 4,3.5 4,5.5 12,5.5 "/><path style="fill:#030104;" d="M14,3.5h-1v2v1H3v-1v-2H2c-1,0-2,1-2,2v5c0,1,1,2,2,2h1v-2v-1h10v1v2h1c1,0,2-1,2-2v-5 C16,4.5,15,3.5,14,3.5z"/></symbol><symbol id="multiple-users-silhouette" viewBox="0 0 80.13 80.13"><title>multiple-users-silhouette</title><path d="M48.355,17.922c3.705,2.323,6.303,6.254,6.776,10.817c1.511,0.706,3.188,1.112,4.966,1.112 c6.491,0,11.752-5.261,11.752-11.751c0-6.491-5.261-11.752-11.752-11.752C53.668,6.35,48.453,11.517,48.355,17.922z M40.656,41.984 c6.491,0,11.752-5.262,11.752-11.752s-5.262-11.751-11.752-11.751c-6.49,0-11.754,5.262-11.754,11.752S34.166,41.984,40.656,41.984 z M45.641,42.785h-9.972c-8.297,0-15.047,6.751-15.047,15.048v12.195l0.031,0.191l0.84,0.263 c7.918,2.474,14.797,3.299,20.459,3.299c11.059,0,17.469-3.153,17.864-3.354l0.785-0.397h0.084V57.833 C60.688,49.536,53.938,42.785,45.641,42.785z M65.084,30.653h-9.895c-0.107,3.959-1.797,7.524-4.47,10.088 c7.375,2.193,12.771,9.032,12.771,17.11v3.758c9.77-0.358,15.4-3.127,15.771-3.313l0.785-0.398h0.084V45.699 C80.13,37.403,73.38,30.653,65.084,30.653z M20.035,29.853c2.299,0,4.438-0.671,6.25-1.814c0.576-3.757,2.59-7.04,5.467-9.276 c0.012-0.22,0.033-0.438,0.033-0.66c0-6.491-5.262-11.752-11.75-11.752c-6.492,0-11.752,5.261-11.752,11.752 C8.283,24.591,13.543,29.853,20.035,29.853z M30.589,40.741c-2.66-2.551-4.344-6.097-4.467-10.032 c-0.367-0.027-0.73-0.056-1.104-0.056h-9.971C6.75,30.653,0,37.403,0,45.699v12.197l0.031,0.188l0.84,0.265 c6.352,1.983,12.021,2.897,16.945,3.185v-3.683C17.818,49.773,23.212,42.936,30.589,40.741z"/></symbol><symbol id="printer-1" viewBox="0 0 60 60"><title>printer-1</title><title>004 - Printer</title><desc>Created with Sketch.</desc><defs/><g id="Page-1" stroke="none" stroke-width="1" fill="none" fill-rule="evenodd"><g id="004---Printer" fill="#000000" fill-rule="nonzero"><path d="M59.932,23.665 C59.924,23.641 59.92,23.617 59.91,23.594 C59.8680045,23.4964667 59.8106058,23.406317 59.74,23.327 L51.228,13.964 C50.0898233,12.7143877 48.4782588,12.0015245 46.788,12 L42,12 L42,2 C42,0.8954305 41.1045695,6.76353751e-17 40,0 L20,0 C18.8954305,-6.76353751e-17 18,0.8954305 18,2 L18,12 L13.212,12 C11.5217412,12.0015245 9.91017672,12.7143877 8.772,13.964 L0.26,23.327 C0.189394179,23.406317 0.131995527,23.4964667 0.09,23.594 C0.08,23.617 0.076,23.641 0.068,23.665 C0.0350696905,23.7552934 0.0158563363,23.8500119 0.011,23.946 C0.01,23.965 0,23.981 0,24 L0,43 C0.00330737898,46.3123376 2.68766243,48.9966926 6,49 L13,49 L9.4,53.8 C8.94547353,54.4060353 8.87236159,55.2168591 9.21114562,55.8944272 C9.54992965,56.5719952 10.2424559,57 11,57 L16.81,57 L16.732,57.173 C16.4508706,57.7920313 16.5034676,58.5114847 16.8716375,59.0830478 C17.2398075,59.6546109 17.8731224,59.9999972 18.553,60 L41.447,60 C42.1268776,59.9999972 42.7601925,59.6546109 43.1283625,59.0830478 C43.4965324,58.5114847 43.5491294,57.7920313 43.268,57.173 L43.189,57 L49,57 C49.7575441,57 50.4500704,56.5719952 50.7888544,55.8944272 C51.1276384,55.2168591 51.0545265,54.4060353 50.6,53.8 L47,49 L54,49 C57.3123376,48.9966926 59.9966926,46.3123376 60,43 L60,24 C60,23.981 59.99,23.965 59.989,23.946 C59.9841437,23.8500119 59.9649303,23.7552934 59.932,23.665 Z M20,2 L40,2 L40,18 L20,18 L20,2 Z M10.252,15.31 C11.0104682,14.4764039 12.0849882,14.0008562 13.212,14 L18,14 L18,18 L17,18 C16.4477153,18 16,18.4477153 16,19 C16,19.5522847 16.4477153,20 17,20 L43,20 C43.5522847,20 44,19.5522847 44,19 C44,18.4477153 43.5522847,18 43,18 L42,18 L42,14 L46.788,14 C47.9150118,14.0008562 48.9895318,14.4764039 49.748,15.31 L56.739,23 L3.261,23 L10.252,15.31 Z M45,46.334 L43,43.667 L43,42 C43,40.3431458 41.6568542,39 40,39 L20,39 C18.3431458,39 17,40.3431458 17,42 L17,43.667 L15,46.334 L15,39 C15.0044086,35.1358343 18.1358343,32.0044086 22,32 L38,32 C41.8641657,32.0044086 44.9955914,35.1358343 45,39 L45,46.334 Z M41,43 L19,43 L19,42 C19,41.4477153 19.4477153,41 20,41 L40,41 C40.5522847,41 41,41.4477153 41,42 L41,43 Z M18.553,58 L22.644,49 L37.356,49 L41.451,58 L18.553,58 Z M42.28,55 L38.922,47.611 L38.911,47.587 C38.8642853,47.4874278 38.8010596,47.3964775 38.724,47.318 C38.703,47.296 38.679,47.279 38.657,47.259 C38.5913703,47.2010433 38.5184131,47.1519569 38.44,47.113 C38.4104343,47.0973934 38.3800579,47.0833735 38.349,47.071 C38.2378522,47.0266411 38.1196445,47.0025931 38,47 L22,47 C21.8807537,47.0023936 21.7628973,47.0261003 21.652,47.07 C21.6209421,47.0823735 21.5905657,47.0963934 21.561,47.112 C21.4825869,47.1509569 21.4096297,47.2000433 21.344,47.258 C21.322,47.278 21.298,47.295 21.277,47.317 C21.1999404,47.3954775 21.1367147,47.4864278 21.09,47.586 L21.079,47.61 L17.72,55 L11,55 L18.5,45 L41.5,45 L49,55 L42.28,55 Z M58,43 C58,45.209139 56.209139,47 54,47 L47,47 L47,39 C46.993939,34.0319499 42.9680501,30.006061 38,30 L22,30 C17.0319499,30.006061 13.006061,34.0319499 13,39 L13,47 L6,47 C3.790861,47 2,45.209139 2,43 L2,25 L58,25 L58,43 Z" id="Shape"/><path d="M53,34 C54.6568542,34 56,32.6568542 56,31 C56,29.3431458 54.6568542,28 53,28 C51.3431458,28 50,29.3431458 50,31 C50,32.6568542 51.3431458,34 53,34 Z M53,30 C53.5522847,30 54,30.4477153 54,31 C54,31.5522847 53.5522847,32 53,32 C52.4477153,32 52,31.5522847 52,31 C52,30.4477153 52.4477153,30 53,30 Z" id="Shape"/><circle id="Oval" cx="53" cy="37" r="1"/><circle id="Oval" cx="53" cy="40" r="1"/><circle id="Oval" cx="53" cy="43" r="1"/><path d="M26,53 L34,53 C34.5522847,53 35,52.5522847 35,52 C35,51.4477153 34.5522847,51 34,51 L26,51 C25.4477153,51 25,51.4477153 25,52 C25,52.5522847 25.4477153,53 26,53 Z" id="Shape"/><path d="M36,54 L24,54 C23.4477153,54 23,54.4477153 23,55 C23,55.5522847 23.4477153,56 24,56 L36,56 C36.5522847,56 37,55.5522847 37,55 C37,54.4477153 36.5522847,54 36,54 Z" id="Shape"/><path d="M5,30 C5.55228475,30 6,29.5522847 6,29 L6,28 C6,27.4477153 5.55228475,27 5,27 C4.44771525,27 4,27.4477153 4,28 L4,29 C4,29.5522847 4.44771525,30 5,30 Z" id="Shape"/><path d="M5,40 C5.55228475,40 6,39.5522847 6,39 L6,33 C6,32.4477153 5.55228475,32 5,32 C4.44771525,32 4,32.4477153 4,33 L4,39 C4,39.5522847 4.44771525,40 5,40 Z" id="Shape"/></g></g></symbol><symbol id="roll-up" viewBox="0 0 512 512"><title>roll-up</title><path d="m148 256c2.628906 0 5.210938-1.070312 7.070312-2.929688 1.859376-1.859374 2.929688-4.441406 2.929688-7.070312s-1.070312-5.210938-2.929688-7.070312c-1.859374-1.859376-4.441406-2.929688-7.070312-2.929688s-5.210938 1.070312-7.070312 2.929688c-1.859376 1.859374-2.929688 4.441406-2.929688 7.070312s1.070312 5.210938 2.929688 7.070312c1.859374 1.859376 4.441406 2.929688 7.070312 2.929688zm0 0"/><path d="m378.9375 0h-245.875c-5.523438 0-10 4.476562-10 10v40c0 5.523438 4.476562 10 10 10h4.9375v146c0 5.523438 4.476562 10 10 10s10-4.476562 10-10v-146h156v58.34375c0 5.519531 4.476562 10 10 10s10-4.480469 10-10v-58.34375h20v190.296875l-16.878906-16.882813c-3.90625-3.902343-10.238282-3.902343-14.144532 0l-76.207031 76.210938-16.671875-16.667969c-3.902344-3.90625-10.234375-3.90625-14.140625 0l-57.957031 57.953125v-64.910156c0-5.523438-4.476562-10-10-10s-10 4.476562-10 10v166h-4.9375c-5.523438 0-10 4.476562-10 10v40c0 5.523438 4.476562 10 10 10h245.875c5.523438 0 10-4.476562 10-10v-40c0-5.523438-4.476562-10-10-10h-4.9375v-392h4.9375c5.523438 0 10-4.476562 10-10v-40c0-5.523438-4.476562-10-10-10zm-48.886719 254.628906 23.949219 23.949219v138.277344l-93.089844-93.089844zm38.886719 237.371094h-225.875v-20h225.875zm-210.9375-40v-72.804688l65.027344-65.023437 130.972656 130.972656v6.855469zm-10-412h-4.9375v-20h225.875v20zm0 0"/><path d="m50.113281 87.238281c-5.523437 0-10 4.480469-10 10v14.453125c0 5.523438 4.476563 10 10 10 5.523438 0 10-4.476562 10-10v-14.453125c0-5.519531-4.476562-10-10-10zm0 0"/><path d="m90.78125 126.746094h-16.386719c-5.523437 0-10 4.476562-10 10 0 5.523437 4.476563 10 10 10h16.386719c5.523438 0 10-4.476563 10-10 0-5.523438-4.476562-10-10-10zm0 0"/><path d="m25.253906 126.746094h-15.253906c-5.523438 0-10 4.476562-10 10 0 5.523437 4.476562 10 10 10h15.253906c5.523438 0 10-4.476563 10-10 0-5.523438-4.476562-10-10-10zm0 0"/><path d="m50.113281 154.613281c-5.523437 0-10 4.480469-10 10v11.640625c0 5.519532 4.476563 10 10 10 5.523438 0 10-4.480468 10-10v-11.640625c0-5.519531-4.476562-10-10-10zm0 0"/><path d="m502 387.488281h-14.453125c-5.523437 0-10 4.480469-10 10 0 5.523438 4.476563 10 10 10h14.453125c5.523438 0 10-4.476562 10-10 0-5.519531-4.476562-10-10-10zm0 0"/><path d="m462.492188 346.824219c-5.523438 0-10 4.476562-10 10v16.382812c0 5.523438 4.476562 10 10 10 5.523437 0 10-4.476562 10-10v-16.382812c0-5.523438-4.476563-10-10-10zm0 0"/><path d="m462.492188 412.351562c-5.523438 0-10 4.476563-10 10v15.253907c0 5.519531 4.476562 10 10 10 5.523437 0 10-4.480469 10-10v-15.253907c0-5.523437-4.476563-10-10-10zm0 0"/><path d="m434.625 387.488281h-11.640625c-5.519531 0-10 4.480469-10 10 0 5.523438 4.480469 10 10 10h11.640625c5.523438 0 10-4.476562 10-10 0-5.519531-4.476562-10-10-10zm0 0"/><path d="m266.25 170.433594c0-21.714844-17.667969-39.382813-39.382812-39.382813-21.714844 0-39.378907 17.667969-39.378907 39.382813s17.664063 39.382812 39.378907 39.382812c21.714843 0 39.382812-17.667968 39.382812-39.382812zm-58.765625 0c0-10.6875 8.695313-19.382813 19.382813-19.382813s19.382812 8.695313 19.382812 19.382813-8.695312 19.382812-19.382812 19.382812-19.382813-8.695312-19.382813-19.382812zm0 0"/><path d="m331.070312 164.910156c1.859376-1.859375 2.929688-4.429687 2.929688-7.070312 0-2.628906-1.070312-5.210938-2.929688-7.070313-1.859374-1.859375-4.441406-2.929687-7.070312-2.929687s-5.210938 1.070312-7.070312 2.929687c-1.859376 1.859375-2.929688 4.441407-2.929688 7.070313 0 2.640625 1.070312 5.210937 2.929688 7.070312 1.859374 1.859375 4.441406 2.929688 7.070312 2.929688s5.210938-1.070313 7.070312-2.929688zm0 0"/></symbol><symbol id="led" viewBox="0 0 16 16"><title>led</title><path d="m.5 2c.276367 0 .5-.223633.5-.5v-1c0-.276367-.223633-.5-.5-.5s-.5.223633-.5.5v1c0 .276367.223633.5.5.5z" transform="translate(7.5)"/><path d="m1.5 0h-1c-.276367 0-.5.223633-.5.5s.223633.5.5.5h1c.276367 0 .5-.223633.5-.5s-.223633-.5-.5-.5z" transform="translate(14 7.5)"/><path d="m2 .5c0-.276367-.223633-.5-.5-.5h-1c-.276367 0-.5.223633-.5.5s.223633.5.5.5h1c.276367 0 .5-.223633.5-.5z" transform="translate(0 7.5)"/><path d="m.548828 1.75586c.12793 0 .255859-.0488281.353516-.146484l.707031-.707031c.195312-.195312.195312-.511719 0-.707031-.195312-.195312-.511719-.195312-.707031 0l-.707031.707031c-.195312.195312-.195312.511719 0 .707031.0976562.0976563.225586.146484.353516.146484z" transform="translate(12.047 2.148)"/><path d="m.902344 1.60938c.0976562.0976562.225586.146484.353516.146484s.255859-.0488281.353516-.146484c.195312-.195312.195312-.511719 0-.707031l-.707031-.707031c-.195312-.195312-.511719-.195312-.707031 0-.195312.195312-.195312.511719 0 .707031l.707031.707031z" transform="translate(2.148 2.148)"/><path d="m12.5 8h-1v-3c0-2.75684-2.24316-5-5-5s-5 2.24316-5 5v3h-1c-.276367 0-.5.223633-.5.5s.223633.5.5.5h3v2.5c0 .276367.223633.5.5.5s.5-.223633.5-.5v-2.5h4v3.5c0 .276367.223633.5.5.5s.5-.223633.5-.5v-3.5h3c.276367 0 .5-.223633.5-.5s-.223633-.5-.5-.5zm-10 0v-3c0-1.75214 1.13373-3.22498 2.70197-3.76605-1.02686.72406-1.70197 1.91406-1.70197 3.26605v3.5z" transform="translate(1.5 3)"/></symbol><symbol id="delivery-truck" viewBox="0 0 491.1 491.1"><title>delivery-truck</title><path transform="translate(0 -540.36)" d="M401.5,863.31c-12,0-23.4,4.7-32,13.2c-8.6,8.6-13.4,19.8-13.4,31.8s4.7,23.2,13.4,31.8 c8.7,8.5,20,13.2,32,13.2c24.6,0,44.6-20.2,44.6-45S426.1,863.31,401.5,863.31z M401.5,933.31c-13.8,0-25.4-11.4-25.4-25 s11.6-25,25.4-25c13.6,0,24.6,11.2,24.6,25S415.1,933.31,401.5,933.31z M413.1,713.41c-1.8-1.7-4.2-2.6-6.7-2.6h-51.3 c-5.5,0-10,4.5-10,10v82c0,5.5,4.5,10,10,10h81.4c5.5,0,10-4.5,10-10v-54.9c0-2.8-1.2-5.5-3.3-7.4L413.1,713.41z M426.5,792.81 h-61.4v-62.1h37.4l24,21.6V792.81z M157.3,863.31c-12,0-23.4,4.7-32,13.2c-8.6,8.6-13.4,19.8-13.4,31.8s4.7,23.2,13.4,31.8 c8.7,8.5,20,13.2,32,13.2c24.6,0,44.6-20.2,44.6-45S181.9,863.31,157.3,863.31z M157.3,933.31c-13.8,0-25.4-11.4-25.4-25 s11.6-25,25.4-25c13.6,0,24.6,11.2,24.6,25S170.9,933.31,157.3,933.31z M90.6,875.61H70.5v-26.6c0-5.5-4.5-10-10-10s-10,4.5-10,10 v36.6c0,5.5,4.5,10,10,10h30.1c5.5,0,10-4.5,10-10S96.1,875.61,90.6,875.61z M141.3,821.11c0-5.5-4.5-10-10-10H10 c-5.5,0-10,4.5-10,10s4.5,10,10,10h121.3C136.8,831.11,141.3,826.71,141.3,821.11z M30.3,785.01l121.3,0.7c5.5,0,10-4.4,10.1-9.9 c0.1-5.6-4.4-10.1-9.9-10.1l-121.3-0.7c-0.1,0-0.1,0-0.1,0c-5.5,0-10,4.4-10,9.9C20.3,780.51,24.8,785.01,30.3,785.01z M50.7,739.61 H172c5.5,0,10-4.5,10-10s-4.5-10-10-10H50.7c-5.5,0-10,4.5-10,10S45.2,739.61,50.7,739.61z M487.4,726.11L487.4,726.11l-71.6-59.3 c-1.8-1.5-4-2.3-6.4-2.3h-84.2v-36c0-5.5-4.5-10-10-10H60.5c-5.5,0-10,4.5-10,10v73.2c0,5.5,4.5,10,10,10s10-4.5,10-10v-63.2h234.8 v237.1h-82c-5.5,0-10,4.5-10,10s4.5,10,10,10h122.1c5.5,0,10-4.5,10-10s-4.5-10-10-10h-20.1v-191.1h80.6l65.2,54l-0.7,136.9H460 c-5.5,0-10,4.5-10,10s4.5,10,10,10h20.3c5.5,0,10-4.4,10-9.9l0.8-151.6C491,730.91,489.7,728.01,487.4,726.11z"/></symbol><symbol id="triptych-brochure" viewBox="0 0 302.412 302.412"><title>triptych-brochure</title><path d="M95.761,302.412h110.88V40.323H95.761V302.412z M105.845,50.4h90.726v241.94h-90.726V50.4z"/><rect x="120.964" y="206.642" width="60.48" height="55.46"/><path d="M211.689,40.323v262.089l90.723-40.316V0L211.689,40.323z M292.34,255.538l-70.573,31.359V46.872l70.573-31.557V255.538z"/><path d="M0,262.096l90.722,40.316V40.323L0,0V262.096z M10.083,15.314l70.552,31.557v240.038l-70.552-31.371V15.314z"/><polygon points="20.158,131.508 70.564,155.493 70.564,85.218 20.158,61.229 "/><polygon points="282.244,96.51 231.863,120.505 231.863,155.493 282.244,131.508 "/><path d="M181.444,90.723h-60.48c-2.773,0-5.039,2.259-5.039,5.039c0,2.789,2.259,5.044,5.039,5.044h60.48 c2.783,0,5.055-2.256,5.055-5.044C186.492,92.981,184.228,90.723,181.444,90.723z"/><path d="M181.444,110.884h-60.48c-2.773,0-5.039,2.256-5.039,5.048c0,2.776,2.259,5.039,5.039,5.039h60.48 c2.783,0,5.055-2.256,5.055-5.039C186.492,113.14,184.228,110.884,181.444,110.884z"/><path d="M181.444,131.048h-60.48c-2.773,0-5.039,2.256-5.039,5.039c0,2.773,2.259,5.036,5.039,5.036h60.48 c2.783,0,5.055-2.256,5.055-5.036C186.492,133.304,184.228,131.048,181.444,131.048z"/><path d="M235.364,186.024c0.688,0,1.406-0.171,2.131-0.512l41.991-19.888c2.447-1.157,4.365-4.019,4.365-6.515 c0-2.187-1.442-3.721-3.513-3.721c-0.688,0-1.419,0.176-2.138,0.518l-41.997,19.887c-2.441,1.157-4.354,4.02-4.354,6.516 C231.863,184.495,233.3,186.024,235.364,186.024z"/><path d="M66.213,175.794l-41.997-19.887c-0.722-0.342-1.44-0.518-2.138-0.518c-2.07,0-3.51,1.534-3.51,3.721 c0,2.496,1.921,5.357,4.366,6.515l41.994,19.888c0.722,0.341,1.434,0.512,2.125,0.512c2.07,0,3.51-1.529,3.51-3.715 C70.564,179.813,68.649,176.951,66.213,175.794z"/><path d="M235.364,209.4c0.688,0,1.406-0.177,2.131-0.518l41.991-19.888c2.447-1.156,4.365-4.013,4.365-6.503 c0-2.198-1.442-3.727-3.513-3.727c-0.688,0-1.419,0.171-2.138,0.518l-41.997,19.881c-2.441,1.163-4.354,4.025-4.354,6.516 C231.863,207.872,233.3,209.4,235.364,209.4z"/></symbol><symbol id="shirt" viewBox="0 0 512 512"><title>shirt</title><path d="M235.439,43.973h41.705c4.466,0,8.084-3.62,8.084-8.084c0-4.465-3.618-8.084-8.084-8.084h-41.705 c-4.466,0-8.084,3.62-8.084,8.084C227.355,40.353,230.973,43.973,235.439,43.973z"/><path d="M496.713,192.694L468.896,78.087c-0.276-1.134-7.042-27.908-33.642-39.213C416,30.692,355.108,7.575,339.862,1.802 C338.473,0.677,336.705,0,334.778,0h-1.158H178.382c-0.259,0-0.516,0.014-0.774,0.039c-0.111,0.011-0.22,0.03-0.33,0.045 c-0.141,0.019-0.282,0.038-0.423,0.065c-0.131,0.025-0.26,0.058-0.389,0.089c-0.115,0.028-0.231,0.056-0.346,0.088 c-0.134,0.039-0.264,0.084-0.396,0.129c-0.067,0.024-0.135,0.041-0.202,0.066c-3.14,1.187-77.172,29.171-98.776,38.353 C51.172,49.744,43.936,74.9,43.171,77.83c0,0.001,0,0.002-0.001,0.003c-0.014,0.055-0.025,0.098-0.036,0.137 c-0.014,0.053-0.024,0.095-0.029,0.115L23.337,159.53c0,0,0,0,0,0.001l-8.05,33.164c-0.951,3.915,1.127,7.932,4.872,9.42 l79.47,31.57v237.366v32.865c0,4.466,3.619,8.084,8.084,8.084h296.573c4.466,0,8.084-3.618,8.084-8.084v-32.865V317.128 c0-4.465-3.618-8.084-8.084-8.084c-4.466,0-8.084,3.62-8.084,8.084v145.838H197.52c-4.466,0-8.084,3.619-8.084,8.084 c0,4.465,3.618,8.084,8.084,8.084h198.683v16.697H115.799v-16.697h54.774c4.466,0,8.084-3.62,8.084-8.084 c0-4.466-3.618-8.084-8.084-8.084h-54.774v-234.77V193.53v-62.644c0-1.475-0.403-2.921-1.166-4.183L73.863,59.278 c2.632-2.115,5.683-4.024,9.21-5.523c16.551-7.034,66.181-25.968,87.853-34.198c5.199,47.777,42.306,86.201,85.655,86.201 c43.22,0,80.24-38.198,85.611-85.779c22.215,8.44,70.465,26.859,86.739,33.775c3.527,1.499,6.577,3.408,9.21,5.523 l-40.769,67.424c-0.763,1.262-1.166,2.709-1.166,4.183v62.644v34.667v61.985c0,4.466,3.619,8.084,8.084,8.084 c4.466,0,8.084-3.618,8.084-8.084v-56.498l79.47-31.57C495.585,200.626,497.663,196.609,496.713,192.694z M99.631,216.286 L32.658,189.68l4.156-17.12l62.816,26.345V216.286z M99.631,133.139v48.233l-58.954-24.725l18.134-74.711 c0.023-0.091,1.124-4.26,4.094-9.534L99.631,133.139z M256.58,89.589c-31.953,0-66.037-29.165-69.775-73.421h139.552 C322.617,60.425,288.533,89.589,256.58,89.589z M412.372,133.139L449.099,72.4c1.945,3.453,3.09,6.431,3.65,8.091 c0.001,0.005,0.003,0.01,0.005,0.015c0.053,0.157,0.099,0.3,0.142,0.432c0.008,0.025,0.016,0.051,0.024,0.075 c0.033,0.105,0.063,0.199,0.089,0.286c0.011,0.033,0.022,0.07,0.031,0.101c0.022,0.071,0.04,0.134,0.056,0.19 c0.008,0.026,0.016,0.057,0.023,0.08c0.013,0.045,0.023,0.08,0.031,0.112c0.005,0.019,0.013,0.045,0.017,0.06 c0.008,0.028,0.014,0.054,0.015,0.058l18.143,74.748l-58.954,24.725V133.139z M412.372,216.286v-17.381l62.816-26.345 l4.155,17.121L412.372,216.286z"/></symbol><symbol id="business-cards" viewBox="0 0 459.201 459.201"><title>business-cards</title><path d="M296.05,258.873c1.953,1.952,4.512,2.929,7.071,2.929s5.119-0.977,7.071-2.929c3.905-3.905,3.905-10.237,0-14.143 l-60.003-60.003c-3.905-3.904-10.237-3.904-14.143,0c-3.905,3.905-3.905,10.237,0,14.143L296.05,258.873z"/><path d="M291.515,203.404c1.953,1.952,4.512,2.929,7.071,2.929c2.559,0,5.119-0.977,7.071-2.929c3.905-3.905,3.906-10.237,0-14.143 l-30.001-30.002c-3.905-3.903-10.237-3.904-14.142,0c-3.905,3.905-3.906,10.237,0,14.143L291.515,203.404z"/><path d="M118.873,132.863c-4.796,2.739-6.464,8.847-3.726,13.643c2.738,4.797,8.846,6.464,13.643,3.727 c10.875-6.211,24.66-4.356,33.523,4.508c8.863,8.863,10.717,22.648,4.508,33.522c-2.739,4.797-1.07,10.904,3.726,13.643 c1.564,0.894,3.268,1.318,4.949,1.318c3.473,0,6.848-1.812,8.693-5.044c10.667-18.682,7.487-42.36-7.733-57.582 C161.235,125.377,137.556,122.197,118.873,132.863z"/><path d="M283.406,285.66c3.905-3.905,3.905-10.237,0-14.143l-60.003-60.003c-3.905-3.904-10.237-3.904-14.142,0 c-3.905,3.905-3.905,10.237,0,14.143l60.003,60.003c1.953,1.952,4.512,2.929,7.071,2.929S281.453,287.612,283.406,285.66z"/><path d="M392.13,312.939L270.01,435.058L67.071,232.119c-3.905-3.904-10.237-3.904-14.143,0c-3.905,3.905-3.905,10.237,0,14.143 l210.011,210.011c1.953,1.952,4.512,2.929,7.071,2.929s5.119-0.977,7.071-2.929l129.19-129.19c3.905-3.905,3.905-10.237,0-14.143 C402.367,309.035,396.035,309.035,392.13,312.939z"/><path d="M392.13,262.939L270.01,385.058L67.071,182.119c-3.905-3.904-10.237-3.904-14.143,0c-3.905,3.905-3.905,10.237,0,14.143 l210.011,210.011c1.953,1.952,4.512,2.929,7.071,2.929s5.119-0.977,7.071-2.929l129.19-129.19c3.905-3.905,3.905-10.237,0-14.143 C402.367,259.035,396.035,259.035,392.13,262.939z"/><path d="M262.939,356.272c1.953,1.952,4.512,2.929,7.071,2.929s5.119-0.977,7.071-2.929l129.19-129.19 c3.905-3.905,3.905-10.237,0-14.143L196.261,2.928c-3.905-3.904-10.237-3.904-14.143,0l-129.19,129.19 c-3.905,3.905-3.905,10.237,0,14.143L262.939,356.272z M189.19,24.142L385.059,220.01L270.01,335.058L74.142,139.19L189.19,24.142z "/><path d="M224.456,133.527c5.466-5.467,8.477-12.734,8.477-20.465c0-7.731-3.011-14.999-8.477-20.465 c-5.466-5.466-12.734-8.477-20.465-8.477s-14.998,3.011-20.464,8.477s-8.477,12.733-8.477,20.465c0,7.73,3.01,14.998,8.477,20.465 c5.643,5.642,13.053,8.462,20.464,8.462S218.813,139.168,224.456,133.527L224.456,133.527z M210.314,119.384 c-3.487,3.485-9.16,3.486-12.645,0c-1.689-1.688-2.619-3.935-2.619-6.322c0-2.389,0.93-4.634,2.619-6.322 c1.689-1.689,3.934-2.619,6.322-2.619s4.633,0.93,6.323,2.619c1.688,1.688,2.619,3.934,2.619,6.322 C212.932,115.45,212.002,117.695,210.314,119.384z"/></symbol><symbol id="startup" viewBox="0 0 512.001 512.001"><title>startup</title><g> <g> <path d="M268.662,243.351c-3.91-3.91-10.24-3.91-14.15,0c-3.9,3.9-3.9,10.23,0,14.14c3.91,3.9,10.24,3.9,14.15,0 C272.562,253.581,272.562,247.251,268.662,243.351z"/> </g> </g><g> <g> <path d="M395.933,116.07c-19.54-19.539-51.172-19.54-70.713,0c-19.489,19.489-19.49,51.209,0.003,70.714 c19.496,19.484,51.216,19.492,70.71-0.002C415.471,167.244,415.475,135.611,395.933,116.07z M381.791,172.639 c-11.693,11.694-30.727,11.694-42.426,0.002c-11.695-11.702-11.696-30.736-0.002-42.429c11.723-11.723,30.703-11.725,42.428,0 C393.514,141.934,393.516,160.915,381.791,172.639z"/> </g> </g><g> <g> <path d="M509.07,2.929c-1.964-1.963-4.644-3.027-7.43-2.922c-2.261,0.081-56.096,2.245-120.091,24.864 c-51.28,18.106-94.023,44.029-127.042,77.049c-7.399,7.399-14.599,15.245-21.488,23.396c-32.648-19.218-58.81-13.192-75.349-4.341 c-38.081,20.38-61.652,75.716-61.652,115.296c0.003,4.044,2.44,7.691,6.176,9.238c1.237,0.513,2.537,0.762,3.825,0.762 c2.603,0,5.16-1.017,7.073-2.929c20.083-20.083,44.854-18.827,52.946-17.763l3.502,3.502c-6.892,16.4-12.444,32.708-16.516,48.569 c-1.47,5.74-0.974,11.814,1.211,17.37c-9.628,4.437-18.917,10.952-27.005,19.04c-25.741,25.742-30.968,88.476-31.178,91.134 c-0.23,2.917,0.828,5.789,2.897,7.858c1.883,1.882,4.43,2.929,7.07,2.929c0.262,0,0.525-0.01,0.788-0.031 c2.658-0.209,65.394-5.436,91.135-31.177c8.085-8.085,14.599-17.373,19.036-26.999c5.882,2.313,11.936,2.598,17.38,1.203 c15.854-4.071,32.16-9.621,48.562-16.514l3.502,3.502c1.063,8.093,2.319,32.864-17.763,52.945 c-2.859,2.86-3.715,7.161-2.167,10.897c1.547,3.737,5.193,6.173,9.238,6.173c39.58,0,94.915-23.571,115.295-61.652 c8.851-16.537,14.877-42.699-4.341-75.348c8.147-6.886,15.994-14.086,23.396-21.488c33.02-33.02,58.942-75.763,77.048-127.039 c22.62-63.998,24.783-117.834,24.864-120.094C512.092,7.584,511.033,4.893,509.07,2.929z M118.376,214.762 c6.212-30.063,24.255-63.052,48.735-76.154c16.359-8.754,34.24-7.896,53.252,2.511c-16.197,21.302-30.278,44.252-42.015,68.487 c-0.149-0.092-1.949-2.355-5.293-3.109C171.68,206.186,145.221,200.495,118.376,214.762z M183.8,370.63 c-13.75,13.75-46.005,21.002-66.392,23.963c2.962-20.388,10.215-52.642,23.964-66.391c7.7-7.7,16.628-13.538,25.602-16.826 l33.652,33.652C197.338,354.002,191.501,362.93,183.8,370.63z M229.39,339.603c-2.894,0.741-6.246-0.347-8.738-2.835 c-12.937-12.937-17.998-17.998-19.586-19.585c-2.912-2.912-10.053-10.053-25.826-25.827c-2.494-2.499-3.582-5.85-2.843-8.739 c3.203-12.474,7.392-25.272,12.486-38.193l82.695,82.695C254.655,332.214,241.859,336.402,229.39,339.603z M373.394,344.891 c-13.102,24.479-46.09,42.523-76.152,48.734c9.585-18.037,11.698-40.998,8.196-54.921c-0.813-3.234-2.923-4.86-3.041-5.051 c24.233-11.737,47.182-25.818,68.486-42.015C381.29,310.652,382.147,328.535,373.394,344.891z M395.94,243.35 c-9.011,9.01-18.714,17.715-28.84,25.872c-24.342,19.6-51.134,36.202-79.718,49.418l-94.02-94.018 c13.216-28.586,29.818-55.378,49.416-79.717c8.164-10.133,16.868-19.837,25.875-28.843 c29.625-29.626,67.859-53.204,113.671-70.176l83.792,83.792C449.146,175.489,425.568,213.723,395.94,243.35z M473.311,108.587 l-69.896-69.896c38.081-11.828,71.21-16.257,87.746-17.849C489.568,37.381,485.138,70.51,473.311,108.587z"/> </g> </g><g> <g> <path d="M240.371,413.049c-3.907-3.905-10.239-3.903-14.143,0.002l-28.28,28.29c-3.904,3.906-3.903,10.238,0.002,14.142 c3.907,3.904,10.239,3.904,14.143-0.002l28.28-28.29C244.277,423.285,244.276,416.953,240.371,413.049z"/> </g> </g><g> <g> <path d="M98.954,271.631c-3.904-3.906-10.235-3.906-14.142-0.002l-28.29,28.28c-3.906,3.904-3.907,10.236-0.003,14.142 c3.903,3.904,10.234,3.908,14.142,0.002l28.29-28.28C102.857,281.869,102.858,275.537,98.954,271.631z"/> </g> </g><g> <g> <path d="M169.663,427.2c-3.903-3.905-10.236-3.905-14.142-0.001l-67.74,67.73c-3.906,3.905-3.906,10.237-0.001,14.142 c3.903,3.905,10.236,3.907,14.142,0.001l67.74-67.73C173.568,437.437,173.568,431.105,169.663,427.2z"/> </g> </g><g> <g> <path d="M89.663,427.2c-3.904-3.905-10.237-3.905-14.142-0.001l-67.74,67.73c-3.906,3.905-3.906,10.237-0.001,14.142 c3.903,3.905,10.236,3.907,14.142,0.001l67.74-67.73C93.568,437.437,93.568,431.105,89.663,427.2z"/> </g> </g><g> <g> <path d="M84.802,342.338c-3.904-3.904-10.237-3.904-14.142,0.001l-67.73,67.74c-3.905,3.906-3.905,10.237,0.001,14.143 c3.905,3.905,10.237,3.905,14.142-0.001l67.73-67.74C88.708,352.575,88.708,346.244,84.802,342.338z"/> </g> </g><g> <g> <path d="M311.083,200.919c-3.906-3.905-10.236-3.905-14.143,0l-14.14,14.14c-3.905,3.905-3.905,10.237,0,14.143 c3.906,3.905,10.237,3.905,14.143,0l14.14-14.14C314.988,211.157,314.988,204.825,311.083,200.919z"/> </g> </g></symbol><symbol id="wallet" viewBox="0 0 512 512"><title>wallet</title><g> <g> <path d="M487.59,299.894h-7.662v-69.015c0-10.926-5.438-20.6-13.743-26.478v-9.397c0-13.631-11.089-24.72-24.72-24.72h-5.721 l21.889-32.12c7.337-10.766,4.547-25.495-6.219-32.833L302.883,4.111c-5.215-3.555-11.501-4.867-17.705-3.69 c-6.201,1.175-11.574,4.694-15.128,9.91L141.849,198.454h-35.675l8.607-87.13c0.097-0.982,0.735-1.833,1.625-2.168 c11.089-4.181,20.699-11.989,27.059-21.985c0.501-0.787,1.446-1.237,2.424-1.138l55.955,5.528 c4.012,0.389,7.581-2.533,7.977-6.543s-2.533-7.581-6.543-7.977l-55.955-5.528c-6.495-0.636-12.689,2.357-16.169,7.825 c-4.676,7.35-11.742,13.09-19.895,16.164c-6.137,2.314-10.351,7.826-10.999,14.387l-8.748,88.564h-9.303L95.821,60.649 c0.49-4.96,4.917-8.604,9.883-8.107l113.074,11.17c4.01,0.387,7.581-2.533,7.977-6.543s-2.533-7.581-6.543-7.977l-113.074-11.17 C94.174,36.743,82.581,46.248,81.3,59.214l-10.972,111.07H51.643c-13.63,0-24.72,11.089-24.72,24.72v6.41 c-11.151,5.134-18.915,16.406-18.915,29.465v248.695c0,17.88,14.546,32.426,32.427,32.426h407.067 c17.88,0,32.426-14.546,32.426-32.426V410.56h7.662c9.044,0,16.401-7.357,16.401-16.4v-77.865 C503.992,307.251,496.634,299.894,487.59,299.894z M441.465,184.876L441.465,184.876c5.586-0.001,10.129,4.543,10.129,10.129 v3.717c-1.342-0.17-2.705-0.267-4.092-0.267h-30.955l9.253-13.579H441.465z M282.107,18.547c1.36-1.995,3.415-3.341,5.787-3.791 c0.567-0.107,1.136-0.161,1.701-0.161c1.797,0,3.553,0.538,5.071,1.572l148.531,101.22c4.118,2.807,5.186,8.441,2.38,12.559 l-46.686,68.506h-11.204l22.889-33.587c3.712-5.447,4.018-12.379,0.796-18.092c-4.282-7.59-6.018-16.527-4.888-25.166 c0.84-6.427-1.988-12.701-7.38-16.375L322.106,52.76c-5.393-3.675-12.267-4.012-17.941-0.879 c-7.625,4.21-16.578,5.863-25.208,4.655c-6.4-0.898-12.891,1.992-16.548,7.357l-91.699,134.56h-11.204L282.107,18.547z M285.32,142.438c-31.771,0-57.851,24.773-59.976,56.015h-36.979L274.464,72.11c0.001,0,0.001,0,0.001,0 c0.489-0.719,1.3-1.147,2.133-1.147c0.111,0,0.222,0.008,0.333,0.023c11.738,1.642,23.913-0.604,34.285-6.331 c0.816-0.452,1.864-0.387,2.672,0.163l76.999,52.473c0.806,0.55,1.249,1.502,1.129,2.426c-1.537,11.749,0.825,23.903,6.648,34.225 c0.467,0.829,0.41,1.891-0.144,2.706l-28.488,41.804h-24.733C343.172,167.211,317.093,142.438,285.32,142.438z M330.668,198.454 h-90.695c2.09-23.189,21.624-41.424,45.347-41.424C309.044,157.029,328.579,175.265,330.668,198.454z M41.514,195.004 c0-5.586,4.543-10.13,10.129-10.13h17.244l-1.341,13.579H41.514V195.004z M22.599,230.879c0-9.834,8.001-17.835,17.836-17.835 h407.067c9.835,0,17.835,8.001,17.835,17.835v20.244H22.599V230.879z M465.337,479.574c0,9.834-8,17.835-17.835,17.835H40.435 c-9.835,0-17.836-8.001-17.836-17.835V459.33h39.342c4.03,0,7.295-3.266,7.295-7.295c0-4.029-3.266-7.295-7.295-7.295H22.599 V265.714h442.738v34.18h-69.366h-0.001c-21.856,0-40.788,12.74-49.773,31.181c-0.03,0.062-0.064,0.122-0.095,0.184 c-0.076,0.157-0.142,0.32-0.216,0.478c-1.07,2.273-2,4.626-2.757,7.054c-0.002,0.007-0.004,0.013-0.006,0.02 c-1.615,5.189-2.486,10.702-2.486,16.416c0,30.511,24.822,55.333,55.332,55.333h0.001h69.366v34.18H108.655 c-4.03,0-7.295,3.266-7.295,7.295c0,4.029,3.266,7.295,7.295,7.295h356.682V479.574z M489.401,394.159 c0,0.998-0.812,1.81-1.811,1.81h-91.618c-15.445,0-28.911-8.639-35.818-21.338c-0.314-0.577-0.614-1.163-0.901-1.756 c-0.573-1.187-1.09-2.406-1.547-3.654c-1.602-4.366-2.476-9.08-2.476-13.994s0.875-9.628,2.476-13.994 c0.458-1.247,0.975-2.466,1.547-3.654c0.287-0.593,0.587-1.179,0.901-1.756c6.907-12.699,20.373-21.338,35.818-21.338h91.618 c0.998,0,1.811,0.812,1.811,1.81V394.159z"/> </g> </g><g> <g> <path d="M397.681,325.627c-16.322,0-29.6,13.279-29.6,29.6c0,16.321,13.278,29.599,29.6,29.599c16.322,0,29.6-13.278,29.6-29.599 C427.281,338.906,414.003,325.627,397.681,325.627z M397.681,370.235c-8.276,0-15.009-6.733-15.009-15.008 c0-8.275,6.733-15.009,15.009-15.009s15.009,6.733,15.009,15.009S405.957,370.235,397.681,370.235z"/> </g> </g></symbol><symbol id="quality" viewBox="0 0 241.933 241.933"><title>quality</title><path d="M213.937,85.577l-18.398-19.016l3.706-26.192c0.567-4.006-2.145-7.74-6.131-8.438l-26.058-4.568L154.652,3.986 c-1.896-3.573-6.287-4.999-9.919-3.222L120.969,12.38L97.199,0.764c-3.635-1.777-8.022-0.35-9.919,3.224L74.881,27.363 L48.82,31.931c-3.985,0.698-6.698,4.432-6.131,8.438l3.705,26.192L27.996,85.577c-2.813,2.908-2.813,7.522,0.001,10.43 l18.397,19.014l-3.705,26.206c-0.566,4.005,2.146,7.739,6.131,8.437l20.857,3.656v81.113c0,2.599,1.346,5.013,3.557,6.379 c1.204,0.745,2.572,1.121,3.943,1.121c1.146,0,2.295-0.262,3.354-0.792l40.439-20.212l40.433,20.212 c2.324,1.162,5.086,1.038,7.297-0.329c2.211-1.367,3.557-3.781,3.557-6.38v-81.111l20.858-3.658 c3.985-0.699,6.697-4.432,6.131-8.438l-3.706-26.206l18.397-19.013C216.749,93.1,216.749,88.485,213.937,85.577z M124.323,205.835 c-2.11-1.055-4.595-1.056-6.707,0l-32.939,16.464v-49.605l2.604,4.909c1.896,3.575,6.288,5,9.92,3.222l23.769-11.624l23.762,11.624 c1.06,0.518,2.184,0.764,3.291,0.764c2.69,0,5.286-1.454,6.63-3.985l2.604-4.905v49.6L124.323,205.835z M182.209,107.225 c-1.609,1.663-2.36,3.975-2.036,6.266l3.203,22.651l-22.521,3.949c-2.278,0.399-4.245,1.828-5.33,3.871l-10.721,20.2 l-20.539-10.047c-1.04-0.508-2.168-0.763-3.296-0.763c-1.128,0-2.256,0.254-3.295,0.763L97.13,164.162l-10.717-20.199 c-1.084-2.044-3.051-3.473-5.33-3.872l-22.526-3.949l3.202-22.652c0.324-2.29-0.427-4.603-2.036-6.265L43.822,90.791l15.902-16.436 c1.608-1.663,2.359-3.975,2.035-6.265l-3.202-22.637l22.526-3.949c2.279-0.399,4.246-1.829,5.331-3.873l10.717-20.205l20.545,10.04 c2.078,1.016,4.509,1.016,6.587,0l20.539-10.04l10.723,20.206c1.084,2.043,3.051,3.472,5.33,3.872l22.521,3.948l-3.203,22.637 c-0.324,2.291,0.427,4.603,2.035,6.266l15.902,16.436L182.209,107.225z"/><path d="M120.969,39.507c-28.283,0-51.293,23.006-51.293,51.285c0,28.285,23.01,51.296,51.293,51.296 c28.279,0,51.286-23.011,51.286-51.296C172.255,62.513,149.248,39.507,120.969,39.507z M120.969,127.088 c-20.012,0-36.293-16.282-36.293-36.296c0-20.008,16.281-36.285,36.293-36.285c20.008,0,36.286,16.277,36.286,36.285 C157.255,110.806,140.977,127.088,120.969,127.088z"/><path d="M136.258,71.765l-22.155,22.15l-8.431-8.421c-2.93-2.928-7.679-2.925-10.607,0.006c-2.927,2.931-2.924,7.679,0.007,10.606 l13.733,13.718c1.464,1.463,3.382,2.194,5.3,2.194c1.919,0,3.839-0.732,5.303-2.196l27.455-27.449 c2.93-2.928,2.93-7.677,0.001-10.607C143.936,68.837,139.187,68.836,136.258,71.765z"/></symbol><symbol id="customer-support" viewBox="0 0 569 569.54905"><title>customer-support</title><path d="m1.527344 52.246094 37.984375 66.46875c1.28125 2.246094 3.425781 3.871094 5.933593 4.5l35.4375 8.859375 121.542969 121.542969 13.429688-13.425782-123.445313-123.441406c-1.214844-1.21875-2.738281-2.082031-4.40625-2.5l-34.050781-8.542969-32.339844-56.625 27.726563-27.726562 56.648437 32.371093 8.546875 34.050782c.414063 1.671875 1.28125 3.199218 2.496094 4.414062l123.445312 123.445313 13.425782-13.429688-121.542969-121.542969-8.859375-35.417968c-.628906-2.511719-2.253906-4.660156-4.5-5.945313l-66.472656-37.980469c-3.707032-2.109374-8.371094-1.484374-11.394532 1.527344l-37.980468 37.984375c-3.0546878 3.003907-3.71875 7.675781-1.625 11.414063zm0 0"/><path d="m396.3125 187.144531-208.902344 208.90625-13.429687-13.429687 208.90625-208.902344zm0 0"/><path d="m150.847656 403.441406c-1.71875-2.859375-4.804687-4.605468-8.140625-4.605468h-56.972656c-3.332031 0-6.421875 1.746093-8.136719 4.605468l-28.488281 47.476563c-1.808594 3.007812-1.808594 6.769531 0 9.78125l28.488281 47.476562c1.714844 2.855469 4.804688 4.605469 8.136719 4.605469h56.972656c3.335938 0 6.421875-1.75 8.140625-4.605469l28.484375-47.476562c1.808594-3.011719 1.808594-6.773438 0-9.78125zm-13.511718 90.347656h-46.226563l-22.789063-37.980468 22.789063-37.984375h46.226563l22.789062 37.984375zm0 0"/><path d="m456.0625 227.914062c62.714844.210938 113.730469-50.460937 113.941406-113.175781.03125-9.546875-1.140625-19.054687-3.488281-28.308593-1.265625-5.089844-6.417969-8.1875-11.507813-6.921876-1.671874.417969-3.195312 1.28125-4.414062 2.496094l-59.109375 59.070313-46.898437-15.628907-15.640626-46.886718 59.109376-59.121094c3.707031-3.710938 3.703124-9.722656-.007813-13.429688-1.222656-1.222656-2.761719-2.089843-4.445313-2.503906-60.820312-15.402344-122.605468 21.414063-138.007812 82.230469-2.339844 9.226563-3.507812 18.710937-3.476562 28.230469.023437 7.476562.792968 14.929687 2.308593 22.25l-207.957031 207.953125c-7.320312-1.511719-14.773438-2.28125-22.246094-2.308594-62.933594 0-113.949218 51.015625-113.949218 113.949219 0 62.929687 51.015624 113.945312 113.949218 113.945312 62.929688 0 113.945313-51.015625 113.945313-113.945312-.023438-7.476563-.796875-14.929688-2.308594-22.25l49.785156-49.785156 21.773438 21.773437c3.710937 3.707031 9.71875 3.707031 13.429687 0l4.746094-4.75c4.164062-4.136719 10.894531-4.136719 15.058594 0 4.160156 4.148437 4.167968 10.882813.019531 15.042969-.003906.003906-.011719.011718-.019531.019531l-4.746094 4.746094c-3.707031 3.707031-3.707031 9.71875 0 13.425781l113.273438 113.273438c29.792968 30.066406 78.316406 30.285156 108.382812.492187 30.0625-29.792969 30.28125-78.320313.488281-108.382813-.160156-.164062-.324219-.328124-.488281-.492187l-113.273438-113.269531c-3.707031-3.707032-9.71875-3.707032-13.425781 0l-4.746093 4.746094c-4.167969 4.140624-10.894532 4.140624-15.0625 0-4.15625-4.148438-4.167969-10.882813-.019532-15.039063.007813-.007813.015625-.011719.019532-.019531l4.75-4.75c3.707031-3.707032 3.707031-9.71875 0-13.425782l-21.773438-21.773437 49.785156-49.785156c7.320313 1.511719 14.773438 2.285156 22.246094 2.308593zm37.308594 322.851563c-6.898438-.011719-13.738282-1.257813-20.195313-3.683594l74.160157-74.164062c11.191406 29.769531-3.867188 62.972656-33.636719 74.164062-6.496094 2.441407-13.382813 3.691407-20.328125 3.683594zm-107.574219-246.792969c-10.515625 12.542969-8.867187 31.238282 3.675781 41.75 11.023438 9.238282 27.089844 9.230469 38.101563-.027344l106.5625 106.65625c1.15625 1.160157 2.238281 2.382813 3.285156 3.625l-81.1875 81.1875c-1.246094-1.042968-2.46875-2.125-3.628906-3.285156l-106.644531-106.652344c10.515624-12.542968 8.867187-31.238281-3.675782-41.75-11.023437-9.242187-27.09375-9.230468-38.105468.023438l-15.191407-15.191406 81.613281-81.492188zm38.34375-95.503906-215.410156 215.367188c-2.363281 2.359374-3.3125 5.785156-2.507813 9.023437 13.027344 51.160156-17.886718 103.195313-69.050781 116.21875-51.160156 13.027344-103.195313-17.886719-116.222656-69.050781-13.023438-51.160156 17.890625-103.195313 69.054687-116.222656 15.476563-3.9375 31.691406-3.9375 47.167969 0 3.238281.792968 6.65625-.15625 9.023437-2.503907l215.359376-215.371093c2.359374-2.359376 3.308593-5.785157 2.496093-9.019532-12.9375-50.5625 17.5625-102.039062 68.125-114.980468 9.554688-2.441407 19.4375-3.378907 29.28125-2.765626l-50.089843 50.109376c-2.542969 2.539062-3.433594 6.300781-2.296876 9.710937l18.988282 56.976563c.949218 2.832031 3.175781 5.058593 6.011718 6l56.976563 18.992187c3.40625 1.136719 7.167969.25 9.710937-2.289063l50.089844-50.089843c.113282 1.8125.171875 3.605469.171875 5.390625.265625 52.175781-41.8125 94.6875-93.988281 94.957031-8.066406.039063-16.105469-.953125-23.917969-2.953125-3.238281-.808594-6.664062.136719-9.023437 2.496094h.050781zm0 0"/><path d="m491.273438 477.578125-13.429688 13.429687-94.953125-94.953124 13.425781-13.429688zm0 0"/></symbol><symbol id="billboard" viewBox="0 0 64 64"><title>billboard</title><path d="m63 42.5v-34c0-.552-.447-1-1-1h-8v-1h2c.553 0 1-.448 1-1s-.447-1-1-1h-6c-.553 0-1 .448-1 1s.447 1 1 1h2v1h-12v-1h2c.553 0 1-.448 1-1s-.447-1-1-1h-6c-.553 0-1 .448-1 1s.447 1 1 1h2v1h-12v-1h2c.553 0 1-.448 1-1s-.447-1-1-1h-6c-.553 0-1 .448-1 1s.447 1 1 1h2v1h-12v-1h2c.553 0 1-.448 1-1s-.447-1-1-1h-6c-.553 0-1 .448-1 1s.447 1 1 1h2v1h-8c-.553 0-1 .448-1 1v34c-.553 0-1 .447-1 1s.447 1 1 1h27v14c0 .553.447 1 1 1s1-.447 1-1v-14h4v14c0 .553.447 1 1 1s1-.447 1-1v-2c.553 0 1-.447 1-1s-.447-1-1-1v-2c.553 0 1-.447 1-1s-.447-1-1-1v-2c.553 0 1-.447 1-1s-.447-1-1-1v-2h27c.553 0 1-.447 1-1s-.447-1-1-1zm-60-33h58v33h-58z"/><path d="m38.001 21.5h18c.553 0 1-.448 1-1s-.447-1-1-1h-18c-.553 0-1 .448-1 1s.447 1 1 1z"/><path d="m38.001 25.5h18c.553 0 1-.448 1-1s-.447-1-1-1h-18c-.553 0-1 .448-1 1s.447 1 1 1z"/><path d="m38.001 29.5h18c.553 0 1-.448 1-1s-.447-1-1-1h-18c-.553 0-1 .448-1 1s.447 1 1 1z"/><path d="m38.001 33.498h9c.553 0 1-.447 1-1 0-.552-.447-1-1-1h-9c-.553 0-1 .448-1 1 0 .553.447 1 1 1z"/><path d="m10.008 21.498c1.654 0 3-1.346 3-3s-1.346-3-3-3-3 1.346-3 3 1.346 3 3 3zm0-4c.552 0 1 .449 1 1s-.448 1-1 1-1-.449-1-1 .448-1 1-1z"/><path d="m32.006 35.514c.04 0 .073-.018.112-.022.069-.008.138-.019.205-.042.056-.019.105-.043.156-.071.022-.012.046-.017.067-.03s.03-.034.05-.048c.069-.053.13-.11.185-.18.03-.039.057-.078.082-.121.035-.063.063-.128.085-.198.019-.062.03-.121.037-.186.004-.035.021-.065.021-.102 0-.029-.014-.054-.017-.082-.005-.071-.021-.139-.042-.209-.018-.058-.037-.111-.064-.165-.016-.029-.018-.063-.036-.092l-9-13.983c-.002-.004-.007-.005-.009-.009-.037-.057-.094-.099-.143-.147-.047-.045-.086-.1-.139-.134-.004-.003-.006-.007-.01-.01-.045-.029-.096-.035-.144-.056-.067-.03-.132-.066-.204-.08-.069-.014-.138-.006-.208-.004-.059 0-.116-.008-.175.003-.079.016-.15.053-.224.087-.042.02-.088.024-.128.05-.004.002-.006.007-.01.009-.053.035-.091.088-.137.133-.05.049-.107.091-.145.148-.002.003-.007.005-.009.009l-4.684 7.276-2.137-3.288c-.002-.003-.005-.004-.007-.007-.034-.052-.088-.09-.133-.135-.049-.05-.091-.108-.148-.146-.002-.001-.003-.004-.006-.006-.039-.025-.083-.03-.124-.049-.075-.035-.147-.075-.229-.091-.064-.013-.128-.003-.192-.003s-.128-.009-.191.003c-.079.016-.149.054-.223.088-.043.02-.09.025-.131.052-.003.001-.004.004-.007.006-.054.036-.093.091-.14.138-.048.047-.104.088-.141.143-.002.003-.005.004-.007.007l-6.5 9.998c-.017.025-.018.054-.031.08-.032.059-.054.119-.073.184-.02.066-.034.131-.04.198-.002.029-.017.054-.017.083 0 .035.017.064.02.099.008.068.02.133.041.199.02.062.043.117.073.174.029.055.063.104.104.153.044.054.092.1.146.144.027.021.043.051.072.07.033.021.069.03.104.048.031.016.062.031.096.044.113.041.229.069.345.069h.001 24.003zm-13.707-5.829c.012-.017.021-.034.032-.051l4.675-7.263 7.172 11.143h-14.344zm-4.843 3.829h-3.606l4.656-7.163 1.789 2.752z"/></symbol><symbol id="maps-and-flags" viewBox="0 0 512 512"><title>maps-and-flags</title><path d="M256,0C153.755,0,70.573,83.182,70.573,185.426c0,126.888,165.939,313.167,173.004,321.035 c6.636,7.391,18.222,7.378,24.846,0c7.065-7.868,173.004-194.147,173.004-321.035C441.425,83.182,358.244,0,256,0z M256,278.719 c-51.442,0-93.292-41.851-93.292-93.293S204.559,92.134,256,92.134s93.291,41.851,93.291,93.293S307.441,278.719,256,278.719z"/></symbol><symbol id="telephone" viewBox="0 0 480.56 480.56"><title>telephone</title><path d="M365.354,317.9c-15.7-15.5-35.3-15.5-50.9,0c-11.9,11.8-23.8,23.6-35.5,35.6c-3.2,3.3-5.9,4-9.8,1.8 c-7.7-4.2-15.9-7.6-23.3-12.2c-34.5-21.7-63.4-49.6-89-81c-12.7-15.6-24-32.3-31.9-51.1c-1.6-3.8-1.3-6.3,1.8-9.4 c11.9-11.5,23.5-23.3,35.2-35.1c16.3-16.4,16.3-35.6-0.1-52.1c-9.3-9.4-18.6-18.6-27.9-28c-9.6-9.6-19.1-19.3-28.8-28.8 c-15.7-15.3-35.3-15.3-50.9,0.1c-12,11.8-23.5,23.9-35.7,35.5c-11.3,10.7-17,23.8-18.2,39.1c-1.9,24.9,4.2,48.4,12.8,71.3 c17.6,47.4,44.4,89.5,76.9,128.1c43.9,52.2,96.3,93.5,157.6,123.3c27.6,13.4,56.2,23.7,87.3,25.4c21.4,1.2,40-4.2,54.9-20.9 c10.2-11.4,21.7-21.8,32.5-32.7c16-16.2,16.1-35.8,0.2-51.8C403.554,355.9,384.454,336.9,365.354,317.9z"/><path d="M346.254,238.2l36.9-6.3c-5.8-33.9-21.8-64.6-46.1-89c-25.7-25.7-58.2-41.9-94-46.9l-5.2,37.1 c27.7,3.9,52.9,16.4,72.8,36.3C329.454,188.2,341.754,212,346.254,238.2z"/><path d="M403.954,77.8c-42.6-42.6-96.5-69.5-156-77.8l-5.2,37.1c51.4,7.2,98,30.5,134.8,67.2c34.9,34.9,57.8,79,66.1,127.5 l36.9-6.3C470.854,169.3,444.354,118.3,403.954,77.8z"/></symbol><symbol id="facebook" viewBox="0 0 112.196 112.196"><title>facebook</title><circle style="fill:#3B5998;" cx="56.098" cy="56.098" r="56.098"/><path style="fill:#FFFFFF;" d="M70.201,58.294h-10.01v36.672H45.025V58.294h-7.213V45.406h7.213v-8.34 c0-5.964,2.833-15.303,15.301-15.303L71.56,21.81v12.51h-8.151c-1.337,0-3.217,0.668-3.217,3.513v7.585h11.334L70.201,58.294z"/></symbol><symbol id="twitter" viewBox="0 0 112.197 112.197"><title>twitter</title><circle style="fill:#55ACEE;" cx="56.099" cy="56.098" r="56.098"/><g> <path style="fill:#F1F2F2;" d="M90.461,40.316c-2.404,1.066-4.99,1.787-7.702,2.109c2.769-1.659,4.894-4.284,5.897-7.417 c-2.591,1.537-5.462,2.652-8.515,3.253c-2.446-2.605-5.931-4.233-9.79-4.233c-7.404,0-13.409,6.005-13.409,13.409 c0,1.051,0.119,2.074,0.349,3.056c-11.144-0.559-21.025-5.897-27.639-14.012c-1.154,1.98-1.816,4.285-1.816,6.742 c0,4.651,2.369,8.757,5.965,11.161c-2.197-0.069-4.266-0.672-6.073-1.679c-0.001,0.057-0.001,0.114-0.001,0.17 c0,6.497,4.624,11.916,10.757,13.147c-1.124,0.308-2.311,0.471-3.532,0.471c-0.866,0-1.705-0.083-2.523-0.239 c1.706,5.326,6.657,9.203,12.526,9.312c-4.59,3.597-10.371,5.74-16.655,5.74c-1.08,0-2.15-0.063-3.197-0.188 c5.931,3.806,12.981,6.025,20.553,6.025c24.664,0,38.152-20.432,38.152-38.153c0-0.581-0.013-1.16-0.039-1.734 C86.391,45.366,88.664,43.005,90.461,40.316L90.461,40.316z"/> </g></symbol><symbol id="instagram" viewBox="0 0 89.758 89.758"><title>instagram</title><path style="fill:#6A453B;" d="M58.255,23.88H31.503c-4.27,0-7.744,3.474-7.744,7.744v26.752c0,4.27,3.474,7.745,7.744,7.745 h26.752c4.27,0,7.745-3.474,7.745-7.745V31.624C66,27.354,62.526,23.88,58.255,23.88z M44.879,58.906 c-7.667,0-13.905-6.238-13.905-13.906c0-7.667,6.238-13.905,13.905-13.905c7.668,0,13.906,6.238,13.906,13.905 C58.785,52.667,52.546,58.906,44.879,58.906z M59.232,33.97c-1.815,0-3.291-1.476-3.291-3.29c0-1.814,1.476-3.29,3.291-3.29 c1.814,0,3.29,1.476,3.29,3.29C62.522,32.494,61.046,33.97,59.232,33.97z"/><path style="fill:#6A453B;" d="M44.879,36.971c-4.426,0-8.03,3.602-8.03,8.028c0,4.428,3.604,8.031,8.03,8.031 c4.428,0,8.029-3.603,8.029-8.031C52.908,40.574,49.306,36.971,44.879,36.971z"/><path style="fill:#6A453B;" d="M44.879,0C20.094,0,0,20.094,0,44.879c0,24.785,20.094,44.879,44.879,44.879 c24.785,0,44.879-20.094,44.879-44.879C89.758,20.094,69.664,0,44.879,0z M71.875,58.376c0,7.511-6.109,13.62-13.62,13.62H31.503 c-7.51,0-13.62-6.109-13.62-13.62V31.624c0-7.51,6.11-13.62,13.62-13.62h26.752c7.511,0,13.62,6.11,13.62,13.62V58.376z"/></symbol></svg>